<svg width="67" height="67" viewBox="0 0 67 67" fill="none" xmlns="http://www.w3.org/2000/svg">
<path d="M6.66667 66.6667C4.83333 66.6667 3.26389 66.0139 1.95833 64.7083C0.652778 63.4028 0 61.8333 0 60V23.3333C0 21.5 0.652778 19.9306 1.95833 18.625C3.26389 17.3194 4.83333 16.6667 6.66667 16.6667H23.3333V6.66667C23.3333 4.83333 23.9861 3.26389 25.2917 1.95833C26.5972 0.652778 28.1667 0 30 0H36.6667C38.5 0 40.0694 0.652778 41.375 1.95833C42.6806 3.26389 43.3333 4.83333 43.3333 6.66667V16.6667H60C61.8333 16.6667 63.4028 17.3194 64.7083 18.625C66.0139 19.9306 66.6667 21.5 66.6667 23.3333V60C66.6667 61.8333 66.0139 63.4028 64.7083 64.7083C63.4028 66.0139 61.8333 66.6667 60 66.6667H6.66667ZM13.3333 53.3333H33.3333V51.8333C33.3333 50.8889 33.0694 50.0139 32.5417 49.2083C32.0139 48.4028 31.2778 47.7778 30.3333 47.3333C29.2222 46.8333 28.0972 46.4583 26.9583 46.2083C25.8194 45.9583 24.6111 45.8333 23.3333 45.8333C22.0556 45.8333 20.8472 45.9583 19.7083 46.2083C18.5694 46.4583 17.4444 46.8333 16.3333 47.3333C15.3889 47.7778 14.6528 48.4028 14.125 49.2083C13.5972 50.0139 13.3333 50.8889 13.3333 51.8333V53.3333ZM40 48.3333H53.3333V43.3333H40V48.3333ZM23.3333 43.3333C24.7222 43.3333 25.9028 42.8472 26.875 41.875C27.8472 40.9028 28.3333 39.7222 28.3333 38.3333C28.3333 36.9444 27.8472 35.7639 26.875 34.7917C25.9028 33.8194 24.7222 33.3333 23.3333 33.3333C21.9444 33.3333 20.7639 33.8194 19.7917 34.7917C18.8194 35.7639 18.3333 36.9444 18.3333 38.3333C18.3333 39.7222 18.8194 40.9028 19.7917 41.875C20.7639 42.8472 21.9444 43.3333 23.3333 43.3333ZM40 38.3333H53.3333V33.3333H40V38.3333ZM30 23.3333H36.6667V6.66667H30V23.3333Z" fill="#F7FAFC"/>
</svg>
